<svg width="25" height="25" viewBox="0 0 25 25" fill="none" xmlns="http://www.w3.org/2000/svg">
<path d="M22.9237 3.59786H17.7222V2.74979C17.7222 1.23355 16.4887 0 14.9724 0H10.028C8.51172 0 7.27817 1.23355 7.27817 2.74979V3.59786H2.07669C1.6912 3.59786 1.38281 3.90625 1.38281 4.29174C1.38281 4.67722 1.6912 4.98561 2.07669 4.98561H3.3308V21.2891C3.3308 23.3347 4.99609 25 7.04173 25H17.9587C20.0043 25 21.6696 23.3347 21.6696 21.2891V4.98561H22.9237C23.3092 4.98561 23.6176 4.67722 23.6176 4.29174C23.6176 3.90625 23.3092 3.59786 22.9237 3.59786ZM8.66591 2.74979C8.66591 1.99938 9.27755 1.38775 10.028 1.38775H14.9724C15.7229 1.38775 16.3345 1.99938 16.3345 2.74979V3.59786H8.66591V2.74979ZM20.2819 21.2891C20.2819 22.5689 19.2385 23.6123 17.9587 23.6123H7.04173C5.76192 23.6123 4.71854 22.5689 4.71854 21.2891V4.98561H20.287V21.2891H20.2819Z" fill="black"/>
<path d="M12.5003 21.1246C12.8858 21.1246 13.1942 20.8162 13.1942 20.4307V8.16714C13.1942 7.78165 12.8858 7.47327 12.5003 7.47327C12.1148 7.47327 11.8064 7.78165 11.8064 8.16714V20.4256C11.8064 20.8111 12.1148 21.1246 12.5003 21.1246Z" fill="black"/>
<path d="M7.97219 20.3588C8.35768 20.3588 8.66607 20.0504 8.66607 19.6649V8.92782C8.66607 8.54234 8.35768 8.23395 7.97219 8.23395C7.58671 8.23395 7.27832 8.54234 7.27832 8.92782V19.6649C7.27832 20.0504 7.59185 20.3588 7.97219 20.3588Z" fill="black"/>
<path d="M17.0283 20.3588C17.4138 20.3588 17.7222 20.0504 17.7222 19.6649V8.92782C17.7222 8.54234 17.4138 8.23395 17.0283 8.23395C16.6429 8.23395 16.3345 8.54234 16.3345 8.92782V19.6649C16.3345 20.0504 16.6429 20.3588 17.0283 20.3588Z" fill="black"/>
</svg>
