<svg width="35" height="35" viewBox="0 0 35 35" fill="none" xmlns="http://www.w3.org/2000/svg">
<g clip-path="url(#clip0)">
<path d="M32.3036 21.9866C31.8222 21.9866 31.4319 22.3769 31.4319 22.8583V30.5979C31.4302 32.0416 30.2606 33.2116 28.8169 33.2129H4.35841C2.91468 33.2116 1.74506 32.0416 1.74336 30.5979V7.88277C1.74506 6.43939 2.91468 5.26943 4.35841 5.26773H12.098C12.5795 5.26773 12.9697 4.87751 12.9697 4.39605C12.9697 3.91492 12.5795 3.52436 12.098 3.52436H4.35841C1.95243 3.52709 0.002724 5.47679 0 7.88277V30.5982C0.002724 33.0042 1.95243 34.9539 4.35841 34.9566H28.8169C31.2229 34.9539 33.1726 33.0042 33.1753 30.5982V22.8583C33.1753 22.3769 32.7851 21.9866 32.3036 21.9866Z" fill="black"/>
<path d="M9.9436 24.7333L9.9437 24.7329L11.9888 17.3499C12.0059 17.2879 12.0388 17.2315 12.0843 17.1859L27.6357 1.63459C28.9726 0.297684 31.14 0.297684 32.4769 1.63459L33.4994 2.65706C34.8345 3.99507 34.8345 6.16108 33.4994 7.49909L17.9488 23.0504C17.9032 23.0959 17.8469 23.1288 17.7848 23.146L17.7848 23.146L10.4019 25.1913C10.2726 25.2271 10.134 25.1907 10.0387 25.0955C9.94387 25.0002 9.90783 24.862 9.9436 24.7333ZM13.2774 17.0463L12.9244 17.3994L13.2774 17.7525L17.3818 21.8572L17.7349 22.2104L18.088 21.8573L30.816 9.12934L31.1691 8.77625L30.816 8.42316L26.7112 4.31842L26.3581 3.96533L26.005 4.31843L13.2774 17.0463ZM13.1637 18.6917L12.5581 18.0859L12.3294 18.9114L11.0726 23.4479L10.8371 24.298L11.6872 24.0624L16.2233 22.8056L17.0487 22.577L16.4431 21.9714L13.1637 18.6917ZM32.9734 6.97227L32.9738 6.97185C34.0178 5.92531 34.0177 4.23116 32.9739 3.18437L32.9733 3.18382L31.9502 2.16101C31.9502 2.16099 31.9501 2.16097 31.9501 2.16095C30.9042 1.11512 29.2084 1.11511 28.1625 2.16095C28.1625 2.16097 28.1625 2.16099 28.1625 2.16101L27.2377 3.08541L26.8845 3.4385L27.2377 3.79166L31.3427 7.89673L31.6958 8.24983L32.0489 7.89673L32.9734 6.97227Z" fill="black" stroke="black" stroke-width="0.998698"/>
</g>
<defs>
<clipPath id="clip0">
<rect y="-0.00012207" width="35" height="35" fill="white"/>
</clipPath>
</defs>
</svg>

