<svg width="25" height="25" viewBox="0 0 25 25" fill="none" xmlns="http://www.w3.org/2000/svg">
<path d="M4.6875 22.6562H12.8906V21.875H3.125V7.8125H2.34375V22.2656C2.34375 22.3692 2.38491 22.4686 2.45816 22.5418C2.53142 22.6151 2.63077 22.6562 2.73438 22.6562H3.90625V23.8281C3.90625 23.9317 3.94741 24.0311 4.02066 24.1043C4.09392 24.1776 4.19327 24.2188 4.29688 24.2188H14.4531V23.4375H4.6875V22.6562Z" fill="black"/>
<path d="M21.0938 12.1094V4.29688C21.0938 4.19327 21.0526 4.09392 20.9793 4.02066C20.9061 3.94741 20.8067 3.90625 20.7031 3.90625H19.5312V2.73438C19.5312 2.63077 19.4901 2.53142 19.4168 2.45816C19.3436 2.38491 19.2442 2.34375 19.1406 2.34375H2.73438C2.63077 2.34375 2.53142 2.38491 2.45816 2.45816C2.38491 2.53142 2.34375 2.63077 2.34375 2.73438V3.90625H3.125V3.125H18.75V11.7188H19.5312V4.6875H20.3125V12.1094H21.0938Z" fill="black"/>
<path d="M18.3594 12.5C17.2005 12.5 16.0677 12.8436 15.1041 13.4875C14.1405 14.1313 13.3895 15.0464 12.946 16.1171C12.5025 17.1878 12.3865 18.3659 12.6126 19.5025C12.8387 20.6391 13.3967 21.6831 14.2162 22.5026C15.0356 23.322 16.0797 23.8801 17.2163 24.1062C18.3529 24.3323 19.531 24.2162 20.6017 23.7727C21.6723 23.3293 22.5874 22.5782 23.2313 21.6147C23.8751 20.6511 24.2188 19.5183 24.2188 18.3594C24.217 16.8059 23.5991 15.3166 22.5006 14.2181C21.4022 13.1196 19.9128 12.5018 18.3594 12.5ZM18.3594 23.4375C17.355 23.4375 16.3732 23.1397 15.5381 22.5817C14.703 22.0237 14.0522 21.2306 13.6678 20.3027C13.2835 19.3748 13.1829 18.3537 13.3788 17.3687C13.5748 16.3836 14.0584 15.4788 14.7686 14.7686C15.4788 14.0584 16.3836 13.5748 17.3687 13.3788C18.3537 13.1829 19.3748 13.2834 20.3027 13.6678C21.2306 14.0522 22.0237 14.703 22.5817 15.5381C23.1397 16.3732 23.4375 17.355 23.4375 18.3594C23.436 19.7057 22.9004 20.9964 21.9484 21.9484C20.9964 22.9004 19.7057 23.436 18.3594 23.4375Z" fill="black"/>
<path d="M17.9688 14.0625H18.75V14.8438H17.9688V14.0625Z" fill="black"/>
<path d="M15.8727 14.831L16.5493 14.4404L16.9399 15.117L16.2633 15.5076L15.8727 14.831Z" fill="black"/>
<path d="M14.443 16.5514L14.8336 15.8748L15.5102 16.2655L15.1196 16.942L14.443 16.5514Z" fill="black"/>
<path d="M14.0625 17.9688H14.8438V18.75H14.0625V17.9688Z" fill="black"/>
<path d="M14.4436 20.1668L15.1202 19.7762L15.5108 20.4527L14.8342 20.8434L14.4436 20.1668Z" fill="black"/>
<path d="M15.8724 21.8883L16.2631 21.2117L16.9396 21.6023L16.549 22.2789L15.8724 21.8883Z" fill="black"/>
<path d="M17.9688 21.875H18.75V22.6562H17.9688V21.875Z" fill="black"/>
<path d="M19.7793 21.5959L20.4559 21.2053L20.8465 21.8819L20.1699 22.2725L19.7793 21.5959Z" fill="black"/>
<path d="M21.209 20.4588L21.5996 19.7822L22.2762 20.1728L21.8856 20.8494L21.209 20.4588Z" fill="black"/>
<path d="M21.875 17.9688H22.6562V18.75H21.875V17.9688Z" fill="black"/>
<path d="M21.2084 16.2606L21.8849 15.8699L22.2756 16.5465L21.599 16.9371L21.2084 16.2606Z" fill="black"/>
<path d="M19.7795 15.1223L20.1702 14.4457L20.8467 14.8363L20.4561 15.5129L19.7795 15.1223Z" fill="black"/>
<path d="M17.9688 18.1977L16.5208 19.6457L17.0731 20.198L18.6356 18.6355C18.7089 18.5623 18.75 18.463 18.75 18.3594V16.0156H17.9688V18.1977Z" fill="black"/>
<path d="M14.3387 6.9168L15.1199 6.13555C15.1932 6.06229 15.2343 5.96295 15.2343 5.85938C15.2343 5.7558 15.1932 5.65646 15.1199 5.5832L14.3387 4.80195C14.2654 4.72869 14.1661 4.68752 14.0625 4.6875H1.95312C1.64232 4.6875 1.34425 4.81096 1.12448 5.03073C0.904715 5.2505 0.78125 5.54857 0.78125 5.85938C0.78125 6.17018 0.904715 6.46825 1.12448 6.68802C1.34425 6.90779 1.64232 7.03125 1.95312 7.03125H14.0625C14.1661 7.03123 14.2654 6.99006 14.3387 6.9168ZM1.5625 5.85938C1.5625 5.75577 1.60366 5.65642 1.67691 5.58316C1.75017 5.50991 1.84952 5.46875 1.95312 5.46875H11.3281V6.25H1.95312C1.84952 6.25 1.75017 6.20884 1.67691 6.13559C1.60366 6.06233 1.5625 5.96298 1.5625 5.85938ZM12.1094 6.25V5.46875H13.9008L14.2914 5.85938L13.9008 6.25H12.1094Z" fill="black"/>
<path d="M12.5 10.9375H17.1875C17.2911 10.9375 17.3905 10.8963 17.4637 10.8231C17.537 10.7498 17.5781 10.6505 17.5781 10.5469V8.20312C17.5781 8.09952 17.537 8.00017 17.4637 7.92691C17.3905 7.85365 17.2911 7.8125 17.1875 7.8125H12.5C12.3964 7.8125 12.297 7.85365 12.2238 7.92691C12.1505 8.00017 12.1094 8.09952 12.1094 8.20312V8.98438H9.76562V8.20312C9.76562 8.09952 9.72447 8.00017 9.65121 7.92691C9.57796 7.85365 9.4786 7.8125 9.375 7.8125H4.6875C4.5839 7.8125 4.48454 7.85365 4.41129 7.92691C4.33803 8.00017 4.29688 8.09952 4.29688 8.20312V10.5469C4.29688 10.6505 4.33803 10.7498 4.41129 10.8231C4.48454 10.8963 4.5839 10.9375 4.6875 10.9375H6.64062V12.5H4.6875C4.5839 12.5 4.48454 12.5412 4.41129 12.6144C4.33803 12.6877 4.29688 12.787 4.29688 12.8906V15.2344C4.29688 15.338 4.33803 15.4373 4.41129 15.5106C4.48454 15.5838 4.5839 15.625 4.6875 15.625H9.375C9.4786 15.625 9.57796 15.5838 9.65121 15.5106C9.72447 15.4373 9.76562 15.338 9.76562 15.2344V12.8906C9.76562 12.787 9.72447 12.6877 9.65121 12.6144C9.57796 12.5412 9.4786 12.5 9.375 12.5H7.42188V10.9375H9.375C9.4786 10.9375 9.57796 10.8963 9.65121 10.8231C9.72447 10.7498 9.76562 10.6505 9.76562 10.5469V9.76562H12.1094V10.5469C12.1094 10.6505 12.1505 10.7498 12.2238 10.8231C12.297 10.8963 12.3964 10.9375 12.5 10.9375ZM12.8906 8.59375H16.7969V10.1562H12.8906V8.59375ZM8.98438 14.8438H5.07812V13.2812H8.98438V14.8438ZM8.98438 10.1562H5.07812V8.59375H8.98438V10.1562Z" fill="black"/>
<path d="M5.07812 16.7969H5.85938V17.5781H5.07812V16.7969Z" fill="black"/>
<path d="M6.64062 16.7969H11.3281V17.5781H6.64062V16.7969Z" fill="black"/>
<path d="M4.29688 18.3594H11.3281V19.1406H4.29688V18.3594Z" fill="black"/>
<path d="M4.29688 19.9219H10.5469V20.7031H4.29688V19.9219Z" fill="black"/>
<path d="M7.8125 0.78125H16.4062V1.5625H7.8125V0.78125Z" fill="black"/>
<path d="M17.1875 0.78125H17.9688V1.5625H17.1875V0.78125Z" fill="black"/>
</svg>
