<svg width="33" height="25" viewBox="0 0 33 25" fill="none" xmlns="http://www.w3.org/2000/svg">
<g clip-path="url(#clip0)">
<path d="M27.3944 0H6.21514C4.23464 0 2.62329 1.27048 2.62329 2.83203V20.8982C2.62329 21.706 3.45666 22.3631 4.48114 22.3631H12.6143C12.9564 22.3631 13.2336 22.1445 13.2336 21.8748C13.2336 21.6051 12.9564 21.3865 12.6143 21.3865H4.48114C4.13957 21.3865 3.86186 21.1676 3.86186 20.8982V2.83203C3.86186 1.80893 4.91754 0.976562 6.21514 0.976562H24.6843C24.1359 1.474 23.8025 2.12269 23.8025 2.83203V18.5677C23.8025 19.0182 23.3378 19.3846 22.7665 19.3846C22.3199 19.3846 21.9249 19.1601 21.7833 18.8261L20.8501 16.6182C20.5866 15.9948 19.8495 15.5762 19.0164 15.5762C17.9506 15.5762 17.0836 16.2598 17.0836 17.1V17.4803H13.8737C13.5316 17.4803 13.2544 17.6991 13.2544 17.9686C13.2544 18.2383 13.5316 18.4568 13.8737 18.4568H17.0836V20.886C17.0836 21.607 17.2618 22.3101 17.6136 22.9753L18.5246 24.6994C18.6238 24.8869 18.8538 25 19.0965 25C19.1758 25 19.2566 24.988 19.3343 24.9624C19.6502 24.8587 19.7995 24.5728 19.6679 24.3238L18.7568 22.5998C18.4685 22.0541 18.3221 21.4775 18.3221 20.8862V17.1001C18.3221 16.7982 18.6335 16.5527 19.0164 16.5527C19.3156 16.5527 19.5805 16.703 19.6751 16.927L20.6084 19.1349C20.9185 19.8683 21.7858 20.3611 22.7665 20.3611C24.0207 20.3611 25.0411 19.5566 25.0411 18.5677V10.1961L25.8687 10.8473C27.3453 12.0092 28.1583 13.5551 28.1583 15.1999V20.3903C28.1583 21.7348 27.772 23.0875 27.0414 24.3023C26.8949 24.5459 27.0267 24.8371 27.3356 24.9527C27.6445 25.0683 28.0139 24.9645 28.1605 24.7208C28.9692 23.3761 29.3969 21.8786 29.3969 20.3903V15.1999C29.3969 13.2938 28.4547 11.5026 26.7437 10.1561L25.0411 8.81615V8.34961H29.1284C30.1529 8.34961 30.9862 7.69253 30.9862 6.88477V2.83203C30.9862 1.27048 29.3751 0 27.3944 0V0ZM29.7477 6.88477C29.7477 7.15389 29.47 7.37305 29.1284 7.37305H25.0411V2.83203C25.0411 1.80893 26.0968 0.976562 27.3944 0.976562C28.692 0.976562 29.7477 1.80893 29.7477 2.83203V6.88477Z" fill="white"/>
<path d="M15.3185 21.3865C15.1555 21.3865 14.9958 21.4388 14.8806 21.5296C14.7655 21.6206 14.6992 21.7465 14.6992 21.8748C14.6992 22.0034 14.7655 22.1293 14.8806 22.22C14.9958 22.3108 15.1555 22.3631 15.3185 22.3631C15.4813 22.3631 15.641 22.3108 15.7564 22.22C15.8715 22.1293 15.9378 22.0034 15.9378 21.8748C15.9378 21.7465 15.8715 21.6206 15.7564 21.5296C15.641 21.4388 15.4813 21.3865 15.3185 21.3865Z" fill="white"/>
<path d="M11.1488 3.61328C11.1488 3.07484 10.5931 2.63672 9.91019 2.63672H7.18534C6.5022 2.63672 5.94678 3.07484 5.94678 3.61328V5.76172C5.94678 6.30016 6.5022 6.73828 7.18534 6.73828H9.91019C10.5931 6.73828 11.1488 6.30016 11.1488 5.76172V3.61328ZM9.91019 5.76172H7.18534V3.61328H9.91019L9.91092 5.76172C9.91092 5.76172 9.91068 5.76172 9.91019 5.76172Z" fill="white"/>
<path d="M11.1488 9.47266C11.1488 8.93421 10.5931 8.49609 9.91019 8.49609H7.18534C6.5022 8.49609 5.94678 8.93421 5.94678 9.47266V11.6211C5.94678 12.1595 6.5022 12.5977 7.18534 12.5977H9.91019C10.5931 12.5977 11.1488 12.1595 11.1488 11.6211V9.47266ZM9.91019 11.6211H7.18534V9.47266H9.91019L9.91092 11.6211C9.91092 11.6211 9.91068 11.6211 9.91019 11.6211Z" fill="white"/>
<path d="M9.91019 14.3555H7.18534C6.5022 14.3555 5.94678 14.7934 5.94678 15.332V17.4803C5.94678 18.0189 6.5022 18.4568 7.18534 18.4568H9.91019C10.5931 18.4568 11.1488 18.0189 11.1488 17.4803V15.332C11.1488 14.7934 10.5931 14.3555 9.91019 14.3555ZM9.91019 17.4803H7.18534V15.332H9.91019L9.91092 17.4803C9.91092 17.4803 9.91068 17.4803 9.91019 17.4803Z" fill="white"/>
<path d="M20.9747 6.73828C21.3167 6.73828 21.5939 6.5197 21.5939 6.25C21.5939 5.9803 21.3167 5.76172 20.9747 5.76172H16.7055C16.3634 5.76172 16.0862 5.9803 16.0862 6.25C16.0862 6.5197 16.3634 6.73828 16.7055 6.73828H20.9747Z" fill="white"/>
<path d="M13.8736 6.73828C14.0366 6.73828 14.1963 6.68602 14.3114 6.59523C14.4266 6.50444 14.4928 6.37836 14.4928 6.25C14.4928 6.12164 14.4266 5.99556 14.3114 5.90477C14.1963 5.81398 14.0366 5.76172 13.8736 5.76172C13.71 5.76172 13.5509 5.81398 13.4357 5.90477C13.3201 5.99556 13.2543 6.12164 13.2543 6.25C13.2543 6.37836 13.3201 6.50444 13.4357 6.59523C13.5509 6.68602 13.71 6.73828 13.8736 6.73828Z" fill="white"/>
<path d="M13.8733 12.5977H20.9745C21.3166 12.5977 21.5938 12.3791 21.5938 12.1094C21.5938 11.8397 21.3166 11.6211 20.9745 11.6211H13.8733C13.5315 11.6211 13.254 11.8397 13.254 12.1094C13.254 12.3791 13.5315 12.5977 13.8733 12.5977Z" fill="white"/>
</g>
<defs>
<clipPath id="clip0">
<rect x="0.951172" width="31.7073" height="25" fill="white"/>
</clipPath>
</defs>
</svg>
