<svg width="25" height="25" viewBox="0 0 25 25" fill="none" xmlns="http://www.w3.org/2000/svg">
<path d="M19.8209 3.27549H17.5592V2.26368C17.5592 1.93632 17.2021 1.78754 16.8747 1.78754H15.1189C14.7023 0.597151 13.6607 0.0019574 12.4703 0.0019574C11.293 -0.0423019 10.2222 0.679574 9.8217 1.78754H8.09564C7.76828 1.78754 7.44093 1.93632 7.44093 2.26368V3.27549H5.17914C3.83883 3.28979 2.74232 4.34711 2.67932 5.686V22.7382C2.67932 24.0477 3.86971 25 5.17914 25H19.8209C21.1303 25 22.3207 24.0477 22.3207 22.7382V5.68606C22.2577 4.34711 21.1612 3.28979 19.8209 3.27549ZM8.63125 2.97792H10.2681C10.5538 2.94306 10.7833 2.7257 10.8335 2.44226C11.0097 1.67475 11.6831 1.12382 12.4703 1.10309C13.2502 1.12672 13.9134 1.67937 14.0773 2.44226C14.1307 2.7355 14.3753 2.95565 14.6725 2.97792H16.3688V5.3587H8.63125V2.97792ZM21.1303 22.7383C21.1303 23.393 20.4756 23.8096 19.8209 23.8096H5.17914C4.52443 23.8096 3.86971 23.393 3.86971 22.7383V5.68606C3.93043 5.00457 4.49503 4.47841 5.17914 4.46594H7.44087V5.98368C7.47231 6.31714 7.76111 6.56657 8.09559 6.54914H16.8746C17.2153 6.56777 17.5131 6.32175 17.5591 5.98368V4.46588H19.8208C20.5049 4.47841 21.0695 5.00451 21.1303 5.686V22.7383H21.1303Z" fill="black"/>
<path d="M10.2085 13.3045C9.98527 13.0692 9.61467 13.0559 9.37521 13.2748L7.47058 15.0901L6.66707 14.2568C6.44384 14.0215 6.07325 14.0083 5.83378 14.2271C5.60326 14.4686 5.60326 14.8486 5.83378 15.0901L7.0539 16.34C7.15951 16.4582 7.31205 16.5236 7.47052 16.5186C7.62751 16.5163 7.77726 16.4522 7.88714 16.34L10.2084 14.1378C10.4385 13.9267 10.4539 13.569 10.2427 13.3389C10.2319 13.3269 10.2205 13.3154 10.2085 13.3045Z" fill="black"/>
<path d="M18.7496 14.5842H11.9049C11.5762 14.5842 11.3097 14.8506 11.3097 15.1793C11.3097 15.5081 11.5762 15.7745 11.9049 15.7745H18.7496C19.0783 15.7745 19.3448 15.5081 19.3448 15.1793C19.3448 14.8506 19.0783 14.5842 18.7496 14.5842Z" fill="black"/>
<path d="M10.2085 8.54295C9.98527 8.30764 9.61467 8.29437 9.37521 8.51321L7.47058 10.3285L6.66707 9.49524C6.44384 9.25993 6.07325 9.24665 5.83378 9.4655C5.60326 9.70702 5.60326 10.087 5.83378 10.3285L7.0539 11.5784C7.15951 11.6967 7.31205 11.7621 7.47052 11.757C7.62751 11.7548 7.77726 11.6906 7.88714 11.5784L10.2084 9.37624C10.4385 9.16514 10.4539 8.80742 10.2427 8.57735C10.2319 8.56533 10.2205 8.55389 10.2085 8.54295Z" fill="black"/>
<path d="M18.7496 9.8226H11.9049C11.5762 9.8226 11.3097 10.0891 11.3097 10.4178C11.3097 10.7465 11.5762 11.013 11.9049 11.013H18.7496C19.0783 11.013 19.3448 10.7465 19.3448 10.4178C19.3448 10.0891 19.0783 9.8226 18.7496 9.8226Z" fill="black"/>
<path d="M10.2085 18.066C9.98527 17.8307 9.61467 17.8175 9.37521 18.0363L7.47058 19.8516L6.66707 19.0183C6.44384 18.783 6.07325 18.7698 5.83378 18.9885C5.60326 19.2301 5.60326 19.6101 5.83378 19.8516L7.0539 21.1015C7.15951 21.2197 7.31205 21.2851 7.47052 21.2801C7.62751 21.2778 7.77726 21.2136 7.88714 21.1015L10.2084 18.8993C10.4385 18.6882 10.4539 18.3305 10.2427 18.1004C10.2319 18.0884 10.2205 18.077 10.2085 18.066Z" fill="black"/>
<path d="M18.7496 19.3457H11.9049C11.5762 19.3457 11.3097 19.6122 11.3097 19.9409C11.3097 20.2696 11.5762 20.5361 11.9049 20.5361H18.7496C19.0783 20.5361 19.3448 20.2696 19.3448 19.9409C19.3448 19.6122 19.0783 19.3457 18.7496 19.3457Z" fill="black"/>
</svg>
