<svg width="25" height="25" viewBox="0 0 25 25" fill="none" xmlns="http://www.w3.org/2000/svg">
<path d="M10.913 1.58698C16.2024 1.58698 20.6213 5.37042 21.6145 10.3711L23.6888 7.77799L25 8.82731L21.6421 13.0246C21.4785 13.2286 21.235 13.3394 20.9865 13.3394C20.8598 13.3394 20.7313 13.3109 20.6113 13.2513L15.5745 10.7329L16.3258 9.23107L20.027 11.0813C19.3403 6.66232 15.5216 3.26588 10.913 3.26588C5.82163 3.26588 1.67891 7.40861 1.67891 12.5C1.67891 17.5913 5.82163 21.734 10.913 21.734V23.4129C4.89575 23.4129 0 18.5172 0 12.5C0 6.48273 4.89575 1.58698 10.913 1.58698Z" fill="black"/>
</svg>
