<svg width="25" height="25" viewBox="0 0 25 25" fill="none" xmlns="http://www.w3.org/2000/svg">
<g clip-path="url(#clip0)">
<path d="M24.8335 4.7119L20.2881 0.16646C20.1816 0.0599255 20.0373 0 19.8864 0H2.27275C1.01985 0 0 1.01927 0 2.27275V22.7273C0 23.9807 1.01985 25.0001 2.27275 25.0001H22.7273C23.9802 25.0001 25.0001 23.9808 25.0001 22.7273V5.11364C25 4.96273 24.9401 4.81843 24.8335 4.7119ZM5.68184 1.13635H18.1819V7.95453C18.1819 8.58095 17.6725 9.09088 17.0455 9.09088H6.81819C6.19118 9.09088 5.68184 8.58095 5.68184 7.95453V1.13635ZM20.4546 23.8637H4.54544V13.6364H20.4546V23.8637ZM23.8637 22.7273C23.8637 23.3537 23.3543 23.8637 22.7273 23.8637H21.591V13.0682C21.591 12.7541 21.3368 12.5 21.0228 12.5H3.97729C3.66323 12.5 3.40909 12.7541 3.40909 13.0682V23.8637H2.27275C1.64574 23.8637 1.1364 23.3537 1.1364 22.7273V2.27275C1.1364 1.64633 1.64579 1.1364 2.27275 1.1364H4.54549V7.95459C4.54544 9.20801 5.56529 10.2273 6.81819 10.2273H17.0455C18.2984 10.2273 19.3182 9.20801 19.3182 7.95453V1.13635H19.6511L23.8637 5.34892V22.7273Z" fill="black"/>
<path d="M14.2047 7.95454H16.4774C16.7915 7.95454 17.0456 7.70041 17.0456 7.38635V2.84091C17.0456 2.52684 16.7915 2.27271 16.4774 2.27271H14.2047C13.8906 2.27271 13.6365 2.52684 13.6365 2.84091V7.38635C13.6365 7.70041 13.8906 7.95454 14.2047 7.95454ZM14.7728 3.40911H15.9092V6.8182H14.7728V3.40911V3.40911Z" fill="black"/>
</g>
<defs>
<clipPath id="clip0">
<rect width="25" height="25" fill="white"/>
</clipPath>
</defs>
</svg>
