<svg width="15" height="15" viewBox="0 0 15 15" fill="none" xmlns="http://www.w3.org/2000/svg">
<g clip-path="url(#clip0)">
<path d="M14.6005 2.43427L12.5551 0.3871C12.0397 -0.128703 11.1432 -0.129694 10.6258 0.388091L1.4626 9.6417C1.42198 9.68268 1.39267 9.73301 1.37669 9.7883L0.0130846 14.5651C-0.0208889 14.684 0.0124135 14.8123 0.099984 14.9C0.164895 14.9649 0.251794 14.9999 0.341027 14.9999C0.372316 14.9999 0.403956 14.9956 0.434574 14.9869L5.20726 13.6221C5.26252 13.6062 5.3128 13.5768 5.35374 13.5362L14.6005 4.36417C14.8582 4.10629 15 3.76374 15 3.39924C15 3.03473 14.8582 2.69215 14.6005 2.43427ZM9.14023 2.86793L10.3951 4.12281L3.84343 10.6745L3.37324 9.73381C3.31529 9.61828 3.19746 9.54538 3.06827 9.54538H2.52233L9.14023 2.86793ZM0.837398 14.1626L1.28145 12.6082L2.39181 13.7185L0.837398 14.1626ZM4.7728 13.0384L3.14172 13.5043L1.49568 11.8583L1.96162 10.2272H2.8575L3.44508 11.4024C3.47803 11.4683 3.53163 11.5219 3.59756 11.5549L4.77277 12.1424V13.0384H4.7728ZM5.45463 12.4777V11.9317C5.45463 11.8026 5.38173 11.6847 5.2662 11.6268L4.32549 11.1566L10.8772 4.6049L12.132 5.85978L5.45463 12.4777ZM14.1195 3.89011L12.6163 5.37986L9.62012 2.38371L11.1089 0.881554C11.3666 0.62386 11.8153 0.62386 12.073 0.881554L14.1185 2.927C14.2473 3.05583 14.3182 3.22694 14.3182 3.40905C14.3182 3.59116 14.2473 3.76227 14.1195 3.89011Z" fill="#232424"/>
</g>
<defs>
<clipPath id="clip0">
<rect width="15" height="15" fill="white"/>
</clipPath>
</defs>
</svg>
