<svg width="25" height="25" viewBox="0 0 25 25" fill="none" xmlns="http://www.w3.org/2000/svg">
<path d="M14.087 1.58698C8.79756 1.58698 4.37866 5.37042 3.38555 10.3711L1.31123 7.77799L0 8.82731L3.35786 13.0246C3.52153 13.2286 3.76499 13.3394 4.01348 13.3394C4.14023 13.3394 4.26865 13.3109 4.38872 13.2513L9.42549 10.7329L8.67417 9.23107L4.973 11.0813C5.65967 6.66232 9.47837 3.26588 14.087 3.26588C19.1784 3.26588 23.3211 7.40861 23.3211 12.5C23.3211 17.5913 19.1784 21.734 14.087 21.734V23.4129C20.1042 23.4129 25 18.5172 25 12.5C25 6.48273 20.1042 1.58698 14.087 1.58698Z" fill="black"/>
</svg>
